<svg width="141" height="40" viewBox="0 0 141 40" fill="none" xmlns="http://www.w3.org/2000/svg">
<g clip-path="url(#clip0_3757_936)">
<path d="M20.0022 40.0005C23.9584 40.0005 27.8258 38.8273 31.1153 36.6292C34.4047 34.4311 36.9684 31.307 38.4822 27.6518C39.996 23.9966 40.3919 19.9746 39.6197 16.0944C38.8476 12.2143 36.9421 8.65024 34.1443 5.85306C31.3465 3.05588 27.7821 1.1512 23.9017 0.379906C20.0214 -0.391389 15.9995 0.00534503 12.3447 1.51993C8.68981 3.03452 5.56619 5.59894 3.36884 8.88886C1.1715 12.1788 -0.000865409 16.0464 4.793e-07 20.0027C0.00579632 25.3054 2.11517 30.3892 5.86517 34.1384C9.61518 37.8876 14.6995 39.9958 20.0022 40.0005ZM14.311 14.3859C14.6738 14.3859 15.0285 14.4935 15.3301 14.6951C15.6318 14.8966 15.8669 15.1831 16.0057 15.5183C16.1445 15.8535 16.1809 16.2223 16.1101 16.5781C16.0393 16.9339 15.8646 17.2608 15.6081 17.5173C15.3516 17.7738 15.0247 17.9485 14.6689 18.0193C14.3131 18.0901 13.9443 18.0538 13.6091 17.9149C13.2739 17.7761 12.9874 17.541 12.7859 17.2393C12.5843 16.9377 12.4767 16.583 12.4767 16.2202C12.4773 15.978 12.5257 15.7383 12.6192 15.5149C12.7127 15.2915 12.8494 15.0887 13.0215 14.9183C13.1935 14.7478 13.3976 14.6131 13.6219 14.5217C13.8462 14.4304 14.0864 14.3842 14.3285 14.3859H14.311ZM13.2735 6.53217V12.4072C12.3559 12.6628 11.562 13.2421 11.0386 14.038C10.5153 14.8339 10.298 15.7925 10.427 16.7362C10.556 17.68 11.0225 18.5451 11.7402 19.1714C12.4579 19.7977 13.3782 20.1427 14.3307 20.1427C15.2833 20.1427 16.2036 19.7977 16.9213 19.1714C17.639 18.5451 18.1055 17.68 18.2345 16.7362C18.3635 15.7925 18.1462 14.8339 17.6229 14.038C17.0995 13.2421 16.3056 12.6628 15.388 12.4072V5.6566C16.878 5.17155 18.4352 4.92481 20.0022 4.92551H20.2123V20.6287H25.9472C26.2028 21.5463 26.7822 22.3402 27.5781 22.8636C28.374 23.3869 29.3325 23.6042 30.2763 23.4752C31.2201 23.3462 32.0852 22.8797 32.7114 22.162C33.3377 21.4443 33.6828 20.524 33.6828 19.5715C33.6828 18.6189 33.3377 17.6986 32.7114 16.9809C32.0852 16.2632 31.2201 15.7967 30.2763 15.6677C29.3325 15.5387 28.374 15.756 27.5781 16.2793C26.7822 16.8027 26.2028 17.5966 25.9472 18.5142H22.3268V5.13127C24.5309 5.46565 26.6329 6.2869 28.4799 7.53533C30.3269 8.78377 31.8725 10.428 33.0045 12.3486C34.1365 14.2692 34.8263 16.4178 35.0239 18.6384C35.2215 20.859 34.9219 23.0957 34.1469 25.186H17.4324C17.1768 24.2684 16.5975 23.4744 15.8016 22.9511C15.0057 22.4278 14.0471 22.2105 13.1034 22.3395C12.1596 22.4685 11.2945 22.935 10.6682 23.6527C10.0419 24.3704 9.69686 25.2907 9.69686 26.2432C9.69686 27.1958 10.0419 28.1161 10.6682 28.8338C11.2945 29.5515 12.1596 30.018 13.1034 30.147C14.0471 30.276 15.0057 30.0587 15.8016 29.5353C16.5975 29.012 17.1768 28.2181 17.4324 27.3005H33.1706C32.0278 29.3657 30.4156 31.1335 28.464 32.4611C26.5124 33.7886 24.276 34.6389 21.9353 34.9432C19.5947 35.2475 17.2153 34.9974 14.9891 34.213C12.7629 33.4286 10.7522 32.1319 9.1193 30.4275C7.4864 28.7231 6.277 26.6588 5.58866 24.401C4.90032 22.1432 4.75233 19.7553 5.15661 17.4298C5.5609 15.1043 6.50614 12.9065 7.91608 11.0135C9.32602 9.1205 11.1612 7.58545 13.2735 6.53217ZM27.9129 19.5649C27.912 19.2009 28.0192 18.8448 28.2209 18.5417C28.4226 18.2387 28.7098 18.0023 29.0459 17.8626C29.3821 17.7229 29.7521 17.6862 30.1092 17.757C30.4663 17.8278 30.7943 18.003 31.0517 18.2604C31.3091 18.5178 31.4843 18.8458 31.5551 19.2029C31.6259 19.56 31.5891 19.93 31.4494 20.2662C31.3097 20.6023 31.0734 20.8894 30.7703 21.0911C30.4673 21.2928 30.1112 21.4001 29.7472 21.3992C29.2626 21.3981 28.798 21.2056 28.4545 20.8638C28.111 20.5219 27.9163 20.0583 27.9129 19.5736V19.5649ZM15.4668 26.2323C15.4668 26.5959 15.3589 26.9514 15.1569 27.2538C14.9549 27.5562 14.6677 27.7918 14.3317 27.931C13.9958 28.0702 13.6261 28.1066 13.2694 28.0356C12.9127 27.9647 12.5851 27.7896 12.328 27.5324C12.0708 27.2753 11.8957 26.9477 11.8247 26.591C11.7538 26.2343 11.7902 25.8646 11.9294 25.5287C12.0686 25.1927 12.3042 24.9055 12.6066 24.7035C12.909 24.5014 13.2645 24.3936 13.6281 24.3936C14.1158 24.3936 14.5834 24.5873 14.9282 24.9321C15.2731 25.277 15.4668 25.7446 15.4668 26.2323Z" fill="url(#paint0_linear_3757_936)"/>
</g>
<path d="M59.96 30.42C57.36 30.42 55.3 29.7 53.78 28.26C52.26 26.8 51.5 24.72 51.5 22.02V16.98C51.5 14.28 52.26 12.21 53.78 10.77C55.3 9.31 57.36 8.58 59.96 8.58C62.54 8.58 64.53 9.29 65.93 10.71C67.35 12.11 68.06 14.04 68.06 16.5V16.68H64.16V16.38C64.16 15.14 63.81 14.12 63.11 13.32C62.43 12.52 61.38 12.12 59.96 12.12C58.56 12.12 57.46 12.55 56.66 13.41C55.86 14.27 55.46 15.44 55.46 16.92V22.08C55.46 23.54 55.86 24.71 56.66 25.59C57.46 26.45 58.56 26.88 59.96 26.88C61.38 26.88 62.43 26.48 63.11 25.68C63.81 24.86 64.16 23.84 64.16 22.62V22.08H68.06V22.5C68.06 24.96 67.35 26.9 65.93 28.32C64.53 29.72 62.54 30.42 59.96 30.42ZM69.9266 30V15.12H73.6466V16.8H74.1866C74.4066 16.2 74.7666 15.76 75.2666 15.48C75.7866 15.2 76.3866 15.06 77.0666 15.06H78.8666V18.42H77.0066C76.0466 18.42 75.2566 18.68 74.6366 19.2C74.0166 19.7 73.7066 20.48 73.7066 21.54V30H69.9266ZM86.5938 30.42C85.1138 30.42 83.8038 30.11 82.6638 29.49C81.5438 28.85 80.6638 27.96 80.0238 26.82C79.4038 25.66 79.0938 24.3 79.0938 22.74V22.38C79.0938 20.82 79.4038 19.47 80.0238 18.33C80.6438 17.17 81.5138 16.28 82.6338 15.66C83.7538 15.02 85.0538 14.7 86.5338 14.7C87.9938 14.7 89.2638 15.03 90.3438 15.69C91.4238 16.33 92.2638 17.23 92.8638 18.39C93.4638 19.53 93.7638 20.86 93.7638 22.38V23.67H82.9338C82.9738 24.69 83.3538 25.52 84.0738 26.16C84.7938 26.8 85.6738 27.12 86.7138 27.12C87.7738 27.12 88.5538 26.89 89.0538 26.43C89.5538 25.97 89.9338 25.46 90.1938 24.9L93.2838 26.52C93.0038 27.04 92.5938 27.61 92.0538 28.23C91.5338 28.83 90.8338 29.35 89.9538 29.79C89.0738 30.21 87.9538 30.42 86.5938 30.42ZM82.9638 20.85H89.9238C89.8438 19.99 89.4938 19.3 88.8738 18.78C88.2738 18.26 87.4838 18 86.5038 18C85.4838 18 84.6738 18.26 84.0738 18.78C83.4738 19.3 83.1038 19.99 82.9638 20.85ZM101.828 30.42C99.8883 30.42 98.2983 30 97.0583 29.16C95.8183 28.32 95.0683 27.12 94.8083 25.56L98.2883 24.66C98.4283 25.36 98.6583 25.91 98.9783 26.31C99.3183 26.71 99.7283 27 100.208 27.18C100.708 27.34 101.248 27.42 101.828 27.42C102.708 27.42 103.358 27.27 103.778 26.97C104.198 26.65 104.408 26.26 104.408 25.8C104.408 25.34 104.208 24.99 103.808 24.75C103.408 24.49 102.768 24.28 101.888 24.12L101.048 23.97C100.008 23.77 99.0583 23.5 98.1983 23.16C97.3383 22.8 96.6483 22.31 96.1283 21.69C95.6083 21.07 95.3483 20.27 95.3483 19.29C95.3483 17.81 95.8883 16.68 96.9683 15.9C98.0483 15.1 99.4683 14.7 101.228 14.7C102.888 14.7 104.268 15.07 105.368 15.81C106.468 16.55 107.188 17.52 107.528 18.72L104.018 19.8C103.858 19.04 103.528 18.5 103.028 18.18C102.548 17.86 101.948 17.7 101.228 17.7C100.508 17.7 99.9583 17.83 99.5783 18.09C99.1983 18.33 99.0083 18.67 99.0083 19.11C99.0083 19.59 99.2083 19.95 99.6083 20.19C100.008 20.41 100.548 20.58 101.228 20.7L102.068 20.85C103.188 21.05 104.198 21.32 105.098 21.66C106.018 21.98 106.738 22.45 107.258 23.07C107.798 23.67 108.068 24.49 108.068 25.53C108.068 27.09 107.498 28.3 106.358 29.16C105.238 30 103.728 30.42 101.828 30.42ZM115.308 30C114.328 30 113.528 29.7 112.908 29.1C112.308 28.48 112.008 27.66 112.008 26.64V18.24H108.288V15.12H112.008V10.5H115.788V15.12H119.868V18.24H115.788V25.98C115.788 26.58 116.068 26.88 116.628 26.88H119.508V30H115.308ZM126.429 30.42C125.369 30.42 124.419 30.24 123.579 29.88C122.739 29.5 122.069 28.96 121.569 28.26C121.089 27.54 120.849 26.67 120.849 25.65C120.849 24.63 121.089 23.78 121.569 23.1C122.069 22.4 122.749 21.88 123.609 21.54C124.489 21.18 125.489 21 126.609 21H130.689V20.16C130.689 19.46 130.469 18.89 130.029 18.45C129.589 17.99 128.889 17.76 127.929 17.76C126.989 17.76 126.289 17.98 125.829 18.42C125.369 18.84 125.069 19.39 124.929 20.07L121.449 18.9C121.689 18.14 122.069 17.45 122.589 16.83C123.129 16.19 123.839 15.68 124.719 15.3C125.619 14.9 126.709 14.7 127.989 14.7C129.949 14.7 131.499 15.19 132.639 16.17C133.779 17.15 134.349 18.57 134.349 20.43V25.98C134.349 26.58 134.629 26.88 135.189 26.88H136.389V30H133.869C133.129 30 132.519 29.82 132.039 29.46C131.559 29.1 131.319 28.62 131.319 28.02V27.99H130.749C130.669 28.23 130.489 28.55 130.209 28.95C129.929 29.33 129.489 29.67 128.889 29.97C128.289 30.27 127.469 30.42 126.429 30.42ZM127.089 27.36C128.149 27.36 129.009 27.07 129.669 26.49C130.349 25.89 130.689 25.1 130.689 24.12V23.82H126.879C126.179 23.82 125.629 23.97 125.229 24.27C124.829 24.57 124.629 24.99 124.629 25.53C124.629 26.07 124.839 26.51 125.259 26.85C125.679 27.19 126.289 27.36 127.089 27.36Z" fill="white"/>
<defs>
<linearGradient id="paint0_linear_3757_936" x1="-0.253381" y1="14.3769" x2="40.4432" y2="15.094" gradientUnits="userSpaceOnUse">
<stop stop-color="#351EE0"/>
<stop offset="1" stop-color="#3F74EF"/>
</linearGradient>
<clipPath id="clip0_3757_936">
<rect width="40" height="40" fill="white"/>
</clipPath>
</defs>
</svg>
