<svg xmlns="http://www.w3.org/2000/svg" viewBox="0 0 15 15" >
<path d="M13.9727 10.832L13.3164 13.5938C13.2344 14.0039 12.9062 14.2773 12.4961 14.2773C5.60547 14.25 0 8.64453 0 1.75391C0 1.34375 0.246094 1.01562 0.65625 0.933594L3.41797 0.277344C3.80078 0.195312 4.21094 0.414062 4.375 0.769531L5.66016 3.75C5.79688 4.10547 5.71484 4.51562 5.41406 4.73438L3.9375 5.9375C4.86719 7.82422 6.39844 9.35547 8.3125 10.2852L9.51562 8.80859C9.73438 8.53516 10.1445 8.42578 10.5 8.5625L13.4805 9.84766C13.8359 10.0391 14.0547 10.4492 13.9727 10.832Z"/>
</svg>
